HIERARCHY
ROOT hip
{
  OFFSET 0 0 0
  CHANNELS 6 Xposition Yposition Zposition Zrotation Yrotation Xrotation
  JOINT abdomen
  {
    OFFSET 0 20.6881 -0.73152
    CHANNELS 3 Zrotation Xrotation Yrotation
    JOINT chest
    {
      OFFSET 0 11.7043 -0.48768
      CHANNELS 3 Zrotation Xrotation Yrotation
      JOINT neck
      {
        OFFSET 0 22.1894 -2.19456
        CHANNELS 3 Zrotation Xrotation Yrotation
        JOINT head
        {
          OFFSET -0.24384 7.07133 1.2192
          CHANNELS 3 Zrotation Xrotation Yrotation
          JOINT leftEye
          {
            OFFSET 4.14528 8.04674 8.04672
            CHANNELS 3 Zrotation Xrotation Yrotation
            End Site
            {
              OFFSET 1 0 0
            }
          }
          JOINT rightEye
          {
            OFFSET -3.6576 8.04674 8.04672
            CHANNELS 3 Zrotation Xrotation Yrotation
            End Site
            {
              OFFSET 1 0 0
            }
          }
        }
      }
      JOINT rCollar
      {
        OFFSET -2.68224 19.2634 -4.8768
        CHANNELS 3 Zrotation Xrotation Yrotation
        JOINT rShldr
        {
          OFFSET -8.77824 -1.95073 1.46304
          CHANNELS 3 Zrotation Xrotation Yrotation
          JOINT rForeArm
          {
            OFFSET -28.1742 -1.7115 0.48768
            CHANNELS 3 Zrotation Xrotation Yrotation
            JOINT rHand
            {
              OFFSET -22.5879 0.773209 7.07136
              CHANNELS 3 Zrotation Xrotation Yrotation
              JOINT rThumb1
              {
                OFFSET -1.2192 -0.487915 3.41376
                CHANNELS 3 Zrotation Xrotation Yrotation
                JOINT rThumb2
                {
                  OFFSET -3.37035 -0.52449 3.41376
                  CHANNELS 3 Zrotation Xrotation Yrotation
                  End Site
                  {
                    OFFSET -1.78271 -1.18214 1.43049
                  }
                }
              }
              JOINT rIndex1
              {
                OFFSET -7.75947 0.938293 5.60832
                CHANNELS 3 Zrotation Xrotation Yrotation
                JOINT rIndex2
                {
                  OFFSET -2.54057 -0.884171 1.56538
                  CHANNELS 3 Zrotation Xrotation Yrotation
                  End Site
                  {
                    OFFSET -1.62519 -0.234802 1.16502
                  }
                }
              }
              JOINT rMid1
              {
                OFFSET -8.24714 1.18213 3.41376
                CHANNELS 3 Zrotation Xrotation Yrotation
                JOINT rMid2
                {
                  OFFSET -3.10165 -0.590103 1.0647
                  CHANNELS 3 Zrotation Xrotation Yrotation
                  End Site
                  {
                    OFFSET -2.48547 -0.328903 0.83742
                  }
                }
              }
              JOINT rRing1
              {
                OFFSET -8.82822 0.546677 1.51678
                CHANNELS 3 Zrotation Xrotation Yrotation
                JOINT rRing2
                {
                  OFFSET -2.60934 -0.819778 -0.0198488
                  CHANNELS 3 Zrotation Xrotation Yrotation
                  End Site
                  {
                    OFFSET -2.33842 -0.294052 0.168128
                  }
                }
              }
              JOINT rPinky1
              {
                OFFSET -8.27202 -0.0477905 -0.4584
                CHANNELS 3 Zrotation Xrotation Yrotation
                JOINT rPinky2
                {
                  OFFSET -1.82734 -0.647385 -0.700984
                  CHANNELS 3 Zrotation Xrotation Yrotation
                  End Site
                  {
                    OFFSET -1.69225 -0.51767 -0.607171
                  }
                }
              }
            }
          }
        }
      }
      JOINT lCollar
      {
        OFFSET 2.68224 19.2634 -4.8768
        CHANNELS 3 Zrotation Xrotation Yrotation
        JOINT lShldr
        {
          OFFSET 8.77824 -1.95073 1.46304
          CHANNELS 3 Zrotation Xrotation Yrotation
          JOINT lForeArm
          {
            OFFSET 28.1742 -1.7115 0.48768
            CHANNELS 3 Zrotation Xrotation Yrotation
            JOINT lHand
            {
              OFFSET 22.5879 0.773209 7.07136
              CHANNELS 3 Zrotation Xrotation Yrotation
              JOINT lThumb1
              {
                OFFSET 1.2192 -0.487915 3.41376
                CHANNELS 3 Zrotation Xrotation Yrotation
                JOINT lThumb2
                {
                  OFFSET 3.37035 -0.52449 3.41376
                  CHANNELS 3 Zrotation Xrotation Yrotation
                  End Site
                  {
                    OFFSET 1.78271 -1.18214 1.43049
                  }
                }
              }
              JOINT lIndex1
              {
                OFFSET 7.75947 0.938293 5.60832
                CHANNELS 3 Zrotation Xrotation Yrotation
                JOINT lIndex2
                {
                  OFFSET 2.54057 -0.884171 1.56538
                  CHANNELS 3 Zrotation Xrotation Yrotation
                  End Site
                  {
                    OFFSET 1.62519 -0.234802 1.16502
                  }
                }
              }
              JOINT lMid1
              {
                OFFSET 8.24714 1.18213 3.41376
                CHANNELS 3 Zrotation Xrotation Yrotation
                JOINT lMid2
                {
                  OFFSET 3.10165 -0.590103 1.0647
                  CHANNELS 3 Zrotation Xrotation Yrotation
                  End Site
                  {
                    OFFSET 2.48547 -0.328903 0.83742
                  }
                }
              }
              JOINT lRing1
              {
                OFFSET 8.82822 0.546677 1.51678
                CHANNELS 3 Zrotation Xrotation Yrotation
                JOINT lRing2
                {
                  OFFSET 2.60934 -0.819778 -0.0198488
                  CHANNELS 3 Zrotation Xrotation Yrotation
                  End Site
                  {
                    OFFSET 2.33842 -0.294052 0.168128
                  }
                }
              }
              JOINT lPinky1
              {
                OFFSET 8.27202 -0.0477905 -0.4584
                CHANNELS 3 Zrotation Xrotation Yrotation
                JOINT lPinky2
                {
                  OFFSET 1.82734 -0.647385 -0.700984
                  CHANNELS 3 Zrotation Xrotation Yrotation
                  End Site
                  {
                    OFFSET 1.69225 -0.51767 -0.607171
                  }
                }
              }
            }
          }
        }
      }
    }
  }
  JOINT rButtock
  {
    OFFSET -8.77824 4.35084 1.2192
    CHANNELS 3 Zrotation Xrotation Yrotation
    JOINT rThigh
    {
      OFFSET 0 -1.70687 -2.19456
      CHANNELS 3 Zrotation Xrotation Yrotation
      JOINT rShin
      {
        OFFSET 0 -36.8199 0.73152
        CHANNELS 3 Zrotation Xrotation Yrotation
        JOINT rFoot
        {
          OFFSET 0.73152 -45.1104 -5.12064
          CHANNELS 3 Zrotation Xrotation Yrotation
          End Site
          {
            OFFSET -1.1221 -3.69964 12.103
          }
        }
      }
    }
  }
  JOINT lButtock
  {
    OFFSET 8.77824 4.35084 1.2192
    CHANNELS 3 Zrotation Xrotation Yrotation
    JOINT lThigh
    {
      OFFSET 0 -1.70687 -2.19456
      CHANNELS 3 Zrotation Xrotation Yrotation
      JOINT lShin
      {
        OFFSET 0 -36.8199 0.73152
        CHANNELS 3 Zrotation Xrotation Yrotation
        JOINT lFoot
        {
          OFFSET -0.73152 -45.1104 -5.12064
          CHANNELS 3 Zrotation Xrotation Yrotation
          End Site
          {
            OFFSET 1.1221 -3.69964 12.103
          }
        }
      }
    }
  }
}
MOTION
Frames:	4
Frame Time:	0.00833333
86.9006 83.8008 103.584 0.0 0.0 0.0 -2.04813 -0.0011253 -0.0554687 -0.56432 0.00679361 -0.0976938 2.643e-15 0.0 -1.2424e-16 9.60689e-15 3.18055e-15 -3.26131e-16 -0.0 0.0 0.0 -0.0 0.0 0.0 2.03589e-15 -6.9497e-17 1.49089e-16 3.49853e-14 -1.01256e-15 0.0 5.57044e-13 -2.13892e-13 -2.54444e-14 6.44467e-12 -6.86056e-14 -2.3218e-13 1.51776e-11 -6.18824e-13 -5.27972e-13 2.61939e-11 -1.06867e-12 -9.15205e-13 1.51792e-11 -6.19015e-13 -5.37514e-13 7.73091 5.47488 0.417314 1.51748e-11 -6.19314e-13 -5.24792e-13 2.90554 0.965183 0.102902 1.51778e-11 -6.19015e-13 -5.27177e-13 10.2786 0.731801 0.0259123 1.51728e-11 -6.16232e-13 -5.12069e-13 2.22167 -0.733487 -0.20892 1.8405e-15 -6.1732e-17 -2.48481e-16 3.26198e-14 -1.11816e-15 -1.78906e-15 5.68574e-13 1.20265e-13 -1.90833e-14 6.43008e-12 -4.10292e-13 -2.06736e-13 1.51805e-11 -6.32847e-13 -5.12069e-13 2.62316e-11 -1.10047e-12 -8.8817e-13 1.51784e-11 -6.34123e-13 -5.05708e-13 -7.73091 5.47488 -0.417314 1.51814e-11 -6.33725e-13 -5.1525e-13 -2.90554 0.965183 -0.102902 1.51761e-11 -6.32831e-13 -5.1366e-13 -10.2786 0.731801 -0.0259123 1.51889e-11 -6.28557e-13 -5.24792e-13 -2.22167 -0.733487 0.20892 -2.03217e-16 0.0 -3.88251e-19 -1.04899 -1.92716 0.000318252 -0.00908072 -2.07858 -0.0748901 -0.505747 3.9982 0.139382 2.03217e-16 0.0 3.88251e-19 -2.06479 -7.46952 0.204667 -0.00450085 7.96077 -0.117523 0.539503 -0.498688 -0.0508355
82.3585 82.7001 96.2743 -141.532 -81.8495 143.319 -1.4347 0.978973 1.43291 -0.189317 -0.663585 0.313692 -1.09105 1.95222 -0.593327 1.45194 -4.40919 -0.831088 -0.0 0.0 0.0 -0.0 0.0 0.0 -3.71644e-15 1.6673e-12 2.61033e-14 22.0628 4.65052 1.06273 -3.24638 -1.32328 5.22344 0.0137237 -2.59908 -0.363919 -2.12218e-10 -1.02866e-10 8.54215e-10 -3.70817e-10 -1.76878e-10 1.47502e-09 -2.12216e-10 -1.02868e-10 8.54207e-10 7.73091 5.47488 0.417314 -2.12221e-10 -1.02869e-10 8.54218e-10 2.90554 0.965183 0.102902 -2.12217e-10 -1.02868e-10 8.54216e-10 10.2786 0.731801 0.0259123 -2.12221e-10 -1.02866e-10 8.54228e-10 2.22167 -0.733487 -0.20892 -3.82405e-15 1.6673e-12 2.57713e-14 -22.1322 5.83351 -0.315347 3.93165 -1.72792 -6.19773 1.73748e-06 0.004662 -0.000655205 -8.86279e-11 1.61169e-10 -7.29145e-10 -1.54156e-10 2.7872e-10 -1.26028e-09 -8.86304e-11 1.61168e-10 -7.29138e-10 -7.73091 5.47488 -0.417314 -8.86279e-11 1.61169e-10 -7.29146e-10 -2.90554 0.965183 -0.102902 -8.8633e-11 1.61168e-10 -7.29145e-10 -10.2786 0.731801 -0.0259123 -8.86203e-11 1.61172e-10 -7.29154e-10 -2.22167 -0.733487 0.20892 -2.03217e-16 0.0 -3.88251e-19 -0.155058 -4.63884 1.30112 0.0107041 6.20651 0.0820844 -0.728189 -0.0666916 -2.586 2.03217e-16 0.0 3.88251e-19 -0.480659 -9.01606 0.97515 -0.0127209 14.758 -0.230468 0.621866 -4.97313 0.89429
82.3742 82.6854 96.2335 -140.908 -81.6908 142.792 -0.852604 2.00837 3.01025 0.221902 -1.3717 0.749492 -2.19953 4.01775 -1.22194 2.84574 -9.07115 -1.72454 -0.0 0.0 0.0 -0.0 0.0 0.0 -9.31145e-15 3.35005e-12 5.19667e-14 45.1955 9.5609 2.20875 -6.41589 -2.68478 10.7523 -0.00781441 -5.34752 -0.751301 -4.29659e-10 -1.83192e-10 1.85215e-09 -7.51232e-10 -3.14657e-10 3.19844e-09 -4.29655e-10 -1.83195e-10 1.85215e-09 7.73091 5.47488 0.417314 -4.29662e-10 -1.83197e-10 1.85216e-09 2.90554 0.965183 0.102902 -4.29656e-10 -1.83195e-10 1.85215e-09 10.2786 0.731801 0.0259123 -4.29659e-10 -1.83193e-10 1.85216e-09 2.22167 -0.733487 -0.20892 -9.32211e-15 3.35005e-12 5.17027e-14 -45.4578 12.0029 -0.659722 7.68423 -3.48704 -12.7678 4.87276e-06 0.00617679 -0.000868102 -1.69196e-10 3.29429e-10 -1.59316e-09 -2.94598e-10 5.6964e-10 -2.75375e-09 -1.69199e-10 3.29428e-10 -1.59315e-09 -7.73091 5.47488 -0.417314 -1.69197e-10 3.29428e-10 -1.59316e-09 -2.90554 0.965183 -0.102902 -1.69202e-10 3.29426e-10 -1.59316e-09 -10.2786 0.731801 -0.0259123 -1.69189e-10 3.29429e-10 -1.59317e-09 -2.22167 -0.733487 0.20892 -2.03217e-16 0.0 -3.88251e-19 0.919664 -7.50305 2.70193 -0.0189596 14.9674 0.255819 -1.38611 -4.34639 -5.49386 2.03217e-16 0.0 3.88251e-19 1.23457 -10.6481 1.80536 0.0101344 21.9389 -0.361503 0.870022 -9.70132 1.90665
82.4002 82.6835 96.2626 -142.12 -81.7381 144.003 -0.360582 2.93138 4.41483 0.589581 -2.00398 1.1371 -3.15133 5.85414 -1.78828 3.96333 -13.2163 -2.55356 -0.0 0.0 0.0 -0.0 0.0 0.0 -1.52211e-14 5.00204e-12 7.80117e-14 65.6577 13.9321 3.27411 -9.02397 -3.83807 15.7022 -0.0586587 -7.79596 -1.10081 -6.6701e-10 -3.07361e-10 2.5637e-09 -1.16484e-09 -5.28498e-10 4.4269e-09 -6.67005e-10 -3.07365e-10 2.5637e-09 7.73091 5.47488 0.417314 -6.67013e-10 -3.07368e-10 2.5637e-09 2.90554 0.965183 0.102902 -6.67006e-10 -3.07365e-10 2.5637e-09 10.2786 0.731801 0.0259123 -6.67009e-10 -3.07364e-10 2.56371e-09 2.22167 -0.733487 -0.20892 -1.51531e-14 5.00203e-12 7.7811e-14 -66.196 17.4984 -0.986809 10.6918 -4.94162 -18.6566 5.53229e-06 0.013986 -0.00196561 -2.96245e-10 4.84774e-10 -2.18641e-09 -5.14931e-10 8.38361e-10 -3.77905e-09 -2.96248e-10 4.84774e-10 -2.1864e-09 -7.73091 5.47488 -0.417314 -2.96247e-10 4.84774e-10 -2.18641e-09 -2.90554 0.965183 -0.102902 -2.96251e-10 4.84771e-10 -2.18641e-09 -10.2786 0.731801 -0.0259123 -2.96239e-10 4.84773e-10 -2.18641e-09 -2.22167 -0.733487 0.20892 -2.03217e-16 0.0 -3.88251e-19 2.00703 -10.0424 3.95054 -0.0941743 22.7761 0.427854 -2.33707 -8.11567 -8.11791 2.03217e-16 0.0 3.88251e-19 2.81512 -12.1014 2.53992 0.0624407 28.352 -0.495217 1.24064 -13.9072 2.85829
